<svg xmlns="http://www.w3.org/2000/svg" xml:space="preserve" width="1024" height="1024" viewBox="0 0 270.933 270.933"><defs><path id="b" d="M103.672 597.903h700.681v108.141H103.672z"/><path id="a" d="M2.681 704.256h790.054V827.59H2.681z"/></defs><g style="display:inline;opacity:1"><path d="M183.269 29.25c-13.78-10.948-45.677-23.545-84.745-7.87C62.605 38.773 53.31 66.937 51.682 78.698c-3.356 14.032-1.415 34.184 1.086 38.366 17.968 1.268 35.036-1.32 51.934-4.635 29.32-6.19 87.448-27.918 101.852-49.183-30.308-11.292-60.344-7.542-81.911-4.659 6.766-2.333 44.991-14.404 81.793-3.631-1.68-6.37-16.606-27.813-68.384-26.25 20.912-5.505 32.207-1.645 45.217.545z" style="display:inline;opacity:1;fill:#fff;fill-opacity:1;stroke-width:.518604"/></g><g style="display:inline"><path d="M31.502 116.216c63.53 26.614 254.967-54.039 158.093-85.498 86.393 10.879 20.597 104.062-131.792 103.524l-2.745-8.235c-16.752-1.356-22.598-7.17-23.556-9.79z" style="display:inline;fill:#fff;fill-opacity:1;stroke-width:.518604"/></g><g style="display:inline"><path d="M42.457 87.588C14.373 103.42-1.799 121.561 9.34 137.925c5.82 4.714 13.35 8.514 25.26 9.965 31.991.702 63.54-3.07 90.301-15.227-29.214 5.008-68.88 10.191-89.756 1.662-27.393-9.583-15.086-27.319 7.313-46.737z" style="display:inline;fill:#fff;fill-opacity:1;stroke-width:.518604"/><path d="M36.569 153.916c23.451.836 65.283-4.886 109.375-21.281 26.247-9.76 53.868-21.876 75.029-48.004 1.551 4.51 1.013 10.38 1.147 15.813-9.092 7.845-18.04 15.647-60.386 33.511-3.585 1.528 51.287-13.55 79.11-44.243 6.726-7.42 15.453-21.263-9.097-32.243 12.386 1.658 25.044 5.73 29.291 16.51 2.99 21.387-22.786 35.363-28.84 40.312-30.356 20.756-65.242 31.117-100.78 39.984-17.477 3.53-34.936 6.877-52.11 7.374-13.776.243-27.464 1.016-42.74-7.733z" style="fill:#fff;fill-opacity:1;stroke-width:.518604"/><path d="M85.12 166.546c59.244-3.299 95.128-15.612 132.558-39.165-7.194 18.368-17.45 36.07-47.508 49.477-31.327 13.84-67.663 4.703-85.05-10.312z" style="display:inline;fill:#fff;fill-opacity:1;stroke-width:.518604"/></g><g style="display:inline"><path d="M221.956 35.962c1.867-8.867 4.907-16.65 15.403-17.534-6.279-1.702-12.718-2.892-14.748-18.19-2.001 14.508-8.453 17.021-15.403 18.19C218 19.8 221.146 26.992 221.956 35.962z" style="fill:#fff;fill-opacity:1;stroke-width:.518604"/><path d="M242.299 42.156c.801-3.807 2.106-7.149 6.613-7.529-2.696-.73-5.46-1.24-6.332-7.81-.86 6.23-3.63 7.309-6.613 7.81 4.633.59 5.984 3.678 6.332 7.529z" style="fill:#fff;fill-opacity:1;stroke-width:.222662"/></g><text xml:space="preserve" style="font-style:normal;font-variant:normal;font-weight:700;font-stretch:normal;font-size:106.667px;font-family:Arial;-inkscape-font-specification:&quot;Arial Bold&quot;;text-align:start;writing-mode:lr-tb;direction:ltr;white-space:pre;shape-inside:url(#a);display:inline;fill:#fff;fill-opacity:1" transform="matrix(.42985 0 0 .42943 1.918 -106.988)"><tspan x="2.682" y="800.337">TUWEBHOY</tspan></text><text xml:space="preserve" style="font-style:normal;font-variant:normal;font-weight:700;font-stretch:normal;font-size:53.3333px;font-family:Arial;-inkscape-font-specification:&quot;Arial Bold&quot;;text-align:start;writing-mode:lr-tb;direction:ltr;white-space:pre;shape-inside:url(#b);display:inline;fill:#fff;fill-opacity:1" transform="matrix(.333 0 0 .333 -11.123 42.865)"><tspan x="103.672" y="645.943">UNA WEB QUE FUNCIONA</tspan></text></svg>