<?xml version="1.0" encoding="UTF-8" standalone="no"?>
<!-- Created with Inkscape (http://www.inkscape.org/) -->

<svg
   width="1024"
   height="1024"
   viewBox="0 0 270.9333 270.9333"
   version="1.1"
   id="svg1"
   xml:space="preserve"
   xmlns:xlink="http://www.w3.org/1999/xlink"
   xmlns="http://www.w3.org/2000/svg"
   xmlns:svg="http://www.w3.org/2000/svg"><defs
     id="defs1"><rect
       x="103.6722"
       y="597.90265"
       width="700.68109"
       height="108.14083"
       id="rect3" /><rect
       x="2.6811776"
       y="704.25598"
       width="790.05371"
       height="123.33417"
       id="rect1" /></defs><g
     id="layer1"
     style="display:inline"><image
       width="210.74655"
       height="174.91963"
       preserveAspectRatio="none"
       id="image1"
       x="0.011858849"
       y="67.531464"
       style="display:none" /></g><g
     id="layer2"
     style="display:inline;opacity:1"><path
       style="display:inline;opacity:1;fill:#ffffff;fill-opacity:1;stroke-width:0.518604"
       d="M 183.2687,29.249946 C 169.48907,18.302479 137.59176,5.7052416 98.5243,21.380637 62.605253,38.772098 53.310075,66.936381 51.682146,78.697319 48.326493,92.728836 50.266788,112.8812 52.767778,117.0631 c 17.967728,1.26758 35.035999,-1.31965 51.934262,-4.63551 29.31904,-6.18949 87.44797,-27.917732 101.85208,-49.182318 -30.30843,-11.291961 -60.34381,-7.542335 -81.91152,-4.658818 6.76677,-2.333905 44.99141,-14.404539 81.7937,-3.631903 -1.68003,-6.370342 -16.6059,-27.812479 -68.38449,-26.25029 20.91257,-5.50468 32.2067,-1.644063 45.21689,0.545685 z"
       id="path2" /></g><g
     id="layer4"
     style="display:inline"><path
       style="display:inline;fill:#ffffff;fill-opacity:1;stroke-width:0.518604"
       d="M 31.502232,116.21625 C 95.031143,142.82966 286.46863,62.176968 189.59454,30.717736 275.98832,41.596939 210.19187,134.7803 57.80315,134.24181 l -2.744798,-8.23441 c -16.752492,-1.35663 -22.598215,-7.16997 -23.55612,-9.79115 z"
       id="path3" /></g><g
     id="layer5"
     style="display:inline"><path
       style="display:inline;fill:#ffffff;fill-opacity:1;stroke-width:0.518604"
       d="M 42.457328,87.588461 C 14.372508,103.42012 -1.7988268,121.56061 9.3388372,137.92521 c 5.8210218,4.71403 13.3492898,8.51348 25.2602388,9.96505 31.991204,0.70138 63.540396,-3.07047 90.301124,-15.22731 -29.214062,5.00776 -68.879838,10.19149 -89.755704,1.66201 -27.3932665,-9.58279 -15.086281,-27.31873 7.312832,-46.736499 z"
       id="path4" /><path
       style="fill:#ffffff;fill-opacity:1;stroke-width:0.518604"
       d="m 36.568909,153.91564 c 23.451179,0.83626 65.283181,-4.88546 109.374781,-21.28108 26.2476,-9.76023 53.86854,-21.87587 75.02888,-48.004039 1.55166,4.511066 1.01296,10.380841 1.14706,15.813329 -9.09145,7.84514 -18.0398,15.64712 -60.38561,33.51118 -3.585,1.52756 51.28729,-13.54959 79.10912,-44.24278 6.7266,-7.420834 15.4541,-21.263526 -9.09622,-32.242945 12.38577,1.657797 25.04432,5.729141 29.29154,16.50977 2.98952,21.38681 -22.78616,35.362655 -28.84089,40.311725 -30.3553,20.75588 -65.24144,31.1174 -100.77925,39.98394 -17.47725,3.52975 -34.936253,6.87699 -52.11024,7.37411 -13.776188,0.24349 -27.464124,1.01647 -42.739171,-7.73321 z"
       id="path5" /><path
       style="display:inline;fill:#ffffff;fill-opacity:1;stroke-width:0.518604"
       d="m 85.119555,166.54575 c 59.244795,-3.29879 95.128585,-15.61159 132.558315,-39.16494 -7.19393,18.3677 -17.45043,36.07086 -47.50779,49.47762 -31.32753,13.83923 -67.66292,4.70281 -85.050525,-10.31268 z"
       id="path6" /></g><g
     id="layer6"
     style="display:inline"><path
       style="fill:#ffffff;fill-opacity:1;stroke-width:0.518604"
       d="m 221.95577,35.961539 c 1.86765,-8.866537 4.90717,-16.649102 15.40365,-17.533951 C 231.08035,16.726056 224.64131,15.536463 222.61124,0.23816121 220.60955,14.746409 214.1579,17.259094 207.20759,18.427588 c 10.79276,1.373244 13.9386,8.564806 14.74818,17.533951 z"
       id="path7" /><path
       style="fill:#ffffff;fill-opacity:1;stroke-width:0.222662"
       d="m 242.29861,42.155599 c 0.80187,-3.806831 2.10688,-7.148259 6.61354,-7.528167 -2.69592,-0.73055 -5.46048,-1.241297 -6.33209,-7.809593 -0.85944,6.229087 -3.62943,7.307903 -6.61353,7.809593 4.63383,0.589601 5.98449,3.677282 6.33208,7.528167 z"
       id="path8" /></g><g
     id="layer3"><text
       xml:space="preserve"
       transform="matrix(0.42985009,0,0,0.4294254,1.9178851,-106.98772)"
       id="text1"
       style="font-style:normal;font-variant:normal;font-weight:bold;font-stretch:normal;font-size:106.667px;font-family:Arial;-inkscape-font-specification:'Arial Bold';text-align:start;writing-mode:lr-tb;direction:ltr;white-space:pre;shape-inside:url(#rect1);display:inline;fill:#ffffff;fill-opacity:1"><tspan
         x="2.6816406"
         y="800.33663"
         id="tspan3">TUWEBHOY</tspan></text><text
       xml:space="preserve"
       transform="matrix(0.33299144,0,0,0.33299144,-11.122653,42.864902)"
       id="text2"
       style="font-style:normal;font-variant:normal;font-weight:bold;font-stretch:normal;font-size:53.3333px;font-family:Arial;-inkscape-font-specification:'Arial Bold';text-align:start;writing-mode:lr-tb;direction:ltr;white-space:pre;shape-inside:url(#rect3);display:inline;fill:#ffffff;fill-opacity:1"><tspan
         x="103.67188"
         y="645.94255"
         id="tspan4">UNA WEB QUE FUNCIONA</tspan></text></g></svg>
